<?xml version="1.0" encoding="UTF-8"?>
<svg width="250px" height="62px" viewBox="0 0 250 62" version="1.1" xmlns="http://www.w3.org/2000/svg" xmlns:xlink="http://www.w3.org/1999/xlink">
    <!-- Generator: Sketch 49.3 (51167) - http://www.bohemiancoding.com/sketch -->
    <title>Group 2</title>
    <desc>Created with Sketch.</desc>
    <defs></defs>
    <g id="Page-1" stroke="none" stroke-width="1" fill="none" fill-rule="evenodd">
        <g id="NEJD-logo-1" transform="translate(-68.000000, -68.000000)" fill="#222222">
            <g id="Group-2" transform="translate(67.000000, 68.000000)">
                <g id="Group" transform="translate(0.998637, 0.000017)">
                    <polygon id="Shape" points="0 61.9999035 0 0 45.9997693 0 45.9997693 61.9999035 39.9997994 61.9999035 39.9997994 5.99999066 5.99996991 5.99999066 5.99996991 61.9999035"></polygon>
                </g>
                <g id="Group" transform="translate(68.998296, 0.000017)">
                    <polygon id="Shape" points="45.9997693 0 45.9997693 5.99999066 5.99996991 5.99999066 5.99996991 27.9999564 29.9998496 27.9999564 29.9998496 33.9999471 5.99996991 33.9999471 5.99996991 55.9999128 45.9997693 55.9999128 45.9997693 61.9999035 0 61.9999035 0 0"></polygon>
                </g>
                <g id="Group" transform="translate(136.997955, 0.000017)">
                    <path d="M39.9997994,18.9999704 L39.9997994,5.99999066 L0,5.99999066 L0,0 L45.9997693,0 L45.9997693,18.9999704 C45.9997693,42.7319335 26.7318659,61.9999035 2.99998496,61.9999035 L0,61.9999035 L0,55.9999128 L2.99998496,55.9999128 C23.4208825,55.9999128 39.9997994,39.4209386 39.9997994,18.9999704 Z" id="Shape"></path>
                </g>
                <g id="Group" transform="translate(204.996990, -0.000278)">
                    <path d="M14.9999248,0 C32.109839,0 45.9997693,13.8909784 45.9997693,30.9999518 C45.9997693,48.1089251 32.109839,61.9999035 14.9999248,61.9999035 L0,61.9999035 L0,55.9999128 L14.9999248,55.9999128 C28.7978556,55.9999128 39.9997994,44.7979303 39.9997994,30.9999518 C39.9997994,17.2019732 28.7978556,5.99999066 14.9999248,5.99999066 L0,5.99999066 L0,0 L14.9999248,0 Z" id="Shape"></path>
                </g>
            </g>
        </g>
    </g>
</svg>